<?xml version="1.0" encoding="utf-8"?>
<svg viewBox="0 0 1000 1000" fill="#000000" xmlns="http://www.w3.org/2000/svg">
  <path d="M 353 418 L 37 418 C 32.333 418 28.333 419.5 25 422.5 C 21.667 425.5 20 429.333 20 434 L 20 488 C 20 492.667 21.667 496.667 25 500 C 28.333 503.333 32.333 505 37 505 L 353 505 C 357 505 360.667 503.333 364 500 C 367.333 496.667 369 492.667 369 488 L 369 434 C 369 429.333 367.333 425.5 364 422.5 C 360.667 419.5 357 418 353 418 Z M 508 631 C 444 645 392 665 352 691 C 305.333 721 282 756 282 796 L 282 810 C 282 822 286.333 832.333 295 841 C 303.667 849.667 314 854 326 854 L 936 854 C 948 854 958.333 849.667 967 841 C 975.667 832.333 980 822 980 810 L 980 796 C 980 756 956 720.667 908 690 C 867.333 664.667 814.667 645 750 631 C 733.333 627.667 719.833 619.5 709.5 606.5 C 699.167 593.5 694 578.667 694 562 L 694 556 C 694 549.333 695.5 543 698.5 537 C 701.5 531 705.667 526 711 522 C 739.667 502.667 762.667 474.333 780 437 C 796.667 401 805 365.333 805 330 C 805 298.667 797.167 269.833 781.5 243.5 C 765.833 217.167 744.667 196.333 718 181 C 691.333 165.667 662.333 158 631 158 C 599.667 158 570.667 165.667 544 181 C 517.333 196.333 496.167 217.167 480.5 243.5 C 464.833 269.833 456.667 298.667 456 330 C 456 364.667 464.333 399.333 481 434 C 497.667 470.667 519.333 499 546 519 C 557.333 527.667 563 538.667 563 552 L 563 563 C 563 579 557.833 593.5 547.5 606.5 C 537.167 619.5 524 627.667 508 631 Z" style="fill: rgb(229, 231, 235);"/>
</svg>