<?xml version="1.0" encoding="utf-8"?>
<svg viewBox="22.458 10.365 229.799 233.254" xmlns="http://www.w3.org/2000/svg" xmlns:bx="https://boxy-svg.com">
  <path fill="#CFB174" opacity="1.000000" stroke="none" d=" M36.140568,184.246994 C36.380890,184.209076 36.565708,184.462433 36.853504,184.931976 C36.692799,184.925308 36.402325,184.722015 36.140568,184.246994 z"/>
  <path fill="#CFB174" opacity="1.000000" stroke="none" d=" M52.708523,47.950272 C52.736279,48.102894 52.504032,48.370857 52.092609,48.834305 C52.091793,48.708397 52.270157,48.387005 52.708523,47.950272 z"/>
  <path fill="#CFB174" opacity="1.000000" stroke="none" d=" M37.118450,186.243042 C37.384274,186.192184 37.576595,186.448914 37.855927,186.940460 C37.681328,186.938797 37.382000,186.730576 37.118450,186.243042 z"/>
  <path fill="#CBA35B" opacity="1.000000" stroke="none" d=" M91.227676,57.147469 C91.227669,57.147469 91.602119,57.008663 92.114342,56.859940 C99.430832,53.622845 106.151184,50.327328 113.070992,47.524174 C117.190865,45.855247 121.624260,44.960258 125.916702,43.717331 C128.015823,43.718372 130.114960,43.719414 132.901398,43.972778 C137.450912,46.565262 141.246307,46.645233 144.957886,43.889042 C146.058136,43.864342 147.158371,43.839642 148.842194,44.116104 C154.358078,49.957024 147.730713,53.205185 145.865250,57.863438 C154.106812,55.453861 155.798752,53.629688 157.033508,46.290539 C165.846634,47.824497 173.698669,51.628372 181.050262,56.452404 C182.214920,57.216648 182.623367,59.544239 182.866135,61.223518 C183.528076,65.802368 183.536728,70.504280 184.527069,74.998131 C185.344788,78.708626 187.771255,80.411545 191.608597,77.136490 C192.834137,76.287949 193.793976,75.573906 195.083588,74.786285 C195.844009,73.990555 196.274643,73.268402 196.771729,72.253548 C196.880798,71.765343 196.923416,71.569832 196.966049,71.374321 C199.639297,73.605370 202.312561,75.836418 205.056000,78.761978 C206.053757,80.652641 206.981323,81.848793 208.150955,83.099937 C208.393021,83.154930 208.888092,83.191856 208.888092,83.191856 C209.361450,84.219185 209.834808,85.246506 210.474243,86.881882 C211.039520,88.627007 211.438751,89.764091 211.328979,90.932678 C210.141190,91.015915 209.462387,91.067642 208.783600,91.119362 C208.783600,91.119362 208.651855,90.868530 208.546310,90.440598 C208.123932,89.751945 207.807083,89.491219 207.490234,89.230492 C206.505814,88.272865 205.521393,87.315239 204.274445,85.796082 C201.805450,81.868103 200.143616,82.365883 198.917160,85.952621 C198.430771,86.886703 197.944382,87.820778 197.152985,89.291977 C196.546249,90.888924 196.244492,91.948730 195.827087,93.201561 C196.023239,93.979095 196.335037,94.563614 196.646820,95.148132 C196.646820,95.148132 196.849762,95.064751 196.873154,95.352974 C196.868378,96.094505 196.840210,96.547806 196.641922,97.343109 C197.185242,101.147888 197.898682,104.610672 198.612137,108.073456 C199.237503,109.554169 199.862869,111.034882 200.762680,113.079590 C201.562317,114.271767 202.087494,114.899948 202.612671,115.528137 C202.910858,116.600410 203.209045,117.672691 203.416275,119.548477 C202.736725,123.551323 202.132843,126.747940 201.563919,129.950760 C201.009598,133.071228 200.517181,136.189102 204.265213,137.845718 C205.642288,139.786179 207.019363,141.726624 208.689102,144.176331 C209.495773,145.319366 210.009796,145.953110 210.523834,146.586868 C211.440094,148.659149 212.356354,150.731430 213.289627,153.511230 C213.613190,155.166245 213.919739,156.113770 214.226288,157.061279 C214.048096,157.957169 213.869904,158.853058 213.380585,160.160583 C212.724945,160.720718 212.380447,160.869232 211.704987,161.028229 C210.573578,161.364029 209.773148,161.689316 208.588699,162.015594 C207.440887,162.077942 206.677063,162.139313 205.913254,162.200684 C205.913254,162.200668 206.000137,162.014191 205.894943,161.641846 C205.029526,161.027481 204.269302,160.785431 203.249573,160.524261 C202.326752,160.590698 201.663422,160.676239 201.000107,160.761780 C200.488022,160.299332 199.975937,159.836853 199.421082,158.908173 C198.560165,157.977600 197.742020,157.513229 196.727417,156.942535 C196.530945,156.836197 196.143066,156.614426 195.996704,156.381668 C194.903870,156.436630 193.957397,156.724350 193.005463,157.006042 C193.000000,157.000000 193.012299,157.011093 192.769852,157.074554 C192.401840,157.779633 192.276291,158.421234 192.150726,159.062851 C191.934860,159.590073 191.718994,160.117310 190.998444,160.971344 C190.200592,162.072998 189.907455,162.847855 189.614319,163.622711 C187.834427,166.498123 186.054565,169.373520 183.750153,172.590332 C182.399323,173.903549 181.573029,174.875381 180.746735,175.847214 C176.531723,179.615067 172.316711,183.382919 167.375427,187.174850 C165.069229,187.725906 163.489304,188.252884 161.545761,188.813782 C160.452972,188.888641 159.723785,188.929565 158.801300,188.847305 C158.032532,189.061310 157.457077,189.398499 156.881638,189.735687 C156.881638,189.735687 156.983276,189.961670 156.695969,189.978058 C155.938812,189.962036 155.468948,189.929611 154.773544,189.736267 C153.697830,189.688004 152.847672,189.800659 151.657501,189.920990 C150.864349,189.912064 150.411194,189.895447 149.756546,189.765411 C149.027618,190.075470 148.500214,190.498947 147.972794,190.922424 C146.962982,191.886841 145.953171,192.851273 144.636749,194.073013 C144.330124,194.330322 144.011551,194.447556 143.707275,194.363708 C142.698471,195.327118 141.993958,196.374390 141.289444,197.421661 C136.992538,200.748459 132.695648,204.075272 127.847534,207.679367 C126.663857,208.478058 126.031395,208.999435 125.398926,209.520813 C124.867165,209.694382 124.335396,209.867966 123.173508,210.093369 C121.750679,210.852051 120.957977,211.558914 120.165283,212.265778 C119.490166,212.685471 118.815048,213.105164 117.559525,213.374603 C115.871140,212.747833 114.763145,212.271301 113.655151,211.794769 C113.524811,211.668976 113.394455,211.543182 113.141548,210.888290 C113.019699,209.898621 113.020409,209.438080 113.020996,208.599319 C112.319290,206.824844 111.617691,205.428574 110.916092,204.032303 C110.714294,203.802216 110.522179,203.564301 110.159706,202.781845 C108.912170,198.985184 107.298721,195.793289 106.882385,192.452225 C105.757477,183.424866 110.982033,177.249847 117.068672,171.551849 C118.619514,170.100037 119.758636,168.208420 121.086929,166.518890 C119.369362,165.671753 118.696320,165.647949 118.130791,165.882919 C116.285118,166.649734 114.478653,167.510956 112.657112,168.335861 C112.625916,165.633179 112.252090,162.871994 112.699562,160.251038 C112.944931,158.813873 114.718117,157.697906 115.556419,156.290588 C118.381653,151.547668 121.096680,146.739090 123.853851,141.955612 C123.853851,141.955612 124.066437,141.627457 124.403015,141.289001 C126.812973,136.760361 123.372757,136.358231 120.867111,135.314026 C119.778610,134.628128 118.690109,133.942215 117.254860,132.858932 C116.268448,132.322510 115.628784,132.183456 114.989120,132.044403 C111.928780,131.572510 108.868439,131.100632 105.252922,130.333908 C103.763260,130.247620 102.828766,130.456177 101.894279,130.664719 C97.293762,132.455719 92.693245,134.246704 87.556915,136.388962 C80.222801,140.302536 74.590919,144.907242 72.336426,152.924591 C71.157074,153.512741 69.975410,153.784637 69.505150,154.514740 C68.616829,155.893890 68.137611,157.536575 67.488380,159.069733 C69.223831,159.617172 71.281944,161.019470 72.620148,160.514404 C74.698029,159.730148 76.285713,157.647125 78.089546,155.711105 C77.751587,151.407578 79.351357,148.600296 83.146294,146.800232 C83.969299,146.165421 84.489471,145.585846 85.236580,144.792419 C86.732635,143.377335 88.001755,142.176117 89.270874,140.974899 C90.601669,140.338425 91.932465,139.701965 93.843796,139.206299 C95.242722,140.165527 96.061119,140.983963 96.567009,141.848267 C95.835129,141.936157 95.415756,141.978195 94.967941,142.010010 C94.939499,141.999802 95.037315,141.982040 94.844246,142.186539 C94.301895,142.829056 93.952621,143.267075 93.603348,143.705093 C92.409149,144.592255 91.214951,145.479401 89.531471,146.843628 C88.567833,151.414658 88.093483,155.508591 87.619125,159.602539 C85.484856,162.153229 83.350578,164.703918 80.724998,167.599518 C79.526543,168.473022 78.819389,169.001617 78.112244,169.530212 C76.764503,170.448547 75.349434,171.283234 74.083031,172.302612 C71.439232,174.430649 69.365112,174.322067 67.833496,170.284897 C65.526794,165.699829 63.314598,161.822845 61.102402,157.945847 C60.969368,157.608673 60.836330,157.271515 60.739769,156.254974 C60.431683,153.970703 60.209396,152.327728 59.723392,150.766876 C55.459923,137.074432 54.376545,123.232605 57.701603,109.182190 C58.864861,104.266716 60.135017,99.376541 61.356354,94.474808 C61.741005,93.102623 62.125656,91.730438 62.808586,89.826721 C63.443523,88.557495 63.780178,87.819809 64.116837,87.082115 C64.614227,86.531113 65.111626,85.980110 66.087418,85.085266 C67.089134,83.554817 67.612442,82.368217 68.135757,81.181618 C69.047226,79.731750 69.958702,78.281891 71.302185,76.422684 C72.112030,75.330322 72.489853,74.647316 72.867683,73.964317 C72.867683,73.964317 73.088478,73.680275 73.472710,73.393799 C77.542786,69.382736 81.228638,65.658150 84.914482,61.933567 C84.914482,61.933567 84.981583,61.982430 85.283707,61.900589 C86.509216,60.959194 87.432602,60.099640 88.355988,59.240089 C88.355988,59.240089 88.693428,59.132416 89.136353,58.977837 C90.128738,58.264660 90.678207,57.706066 91.227676,57.147469 M155.000000,167.999390 C155.000000,167.999390 154.879639,167.879623 154.232712,168.074951 C152.680328,170.183685 151.127930,172.292419 149.575546,174.401154 C151.902298,174.600128 154.226181,174.855530 156.557022,174.973984 C157.702469,175.032181 159.051376,175.177094 159.963272,174.666611 C161.016251,174.077148 161.689087,172.808670 162.643738,171.111221 C162.651962,170.379486 162.660187,169.647736 163.119095,168.411697 C163.023819,166.492004 162.928558,164.572311 162.833298,162.652618 C162.277756,162.398392 161.722229,162.144150 161.166687,161.889908 C159.071106,163.886734 156.975525,165.883545 155.000000,167.999390 z"/>
  <path fill="#CEB57D" opacity="1.000000" stroke="none" d=" M194.788620,69.424347 C194.111420,69.685318 193.434219,69.946297 192.415817,70.339310 C189.847534,69.684898 186.639679,69.988113 187.297638,65.745895 C188.011490,65.247459 188.638168,65.096352 189.876892,64.841911 C190.971481,64.405701 191.454010,64.072815 191.936539,63.739925 C192.845001,64.341980 193.753448,64.944038 194.900253,66.081650 C195.021942,67.552910 194.905289,68.488632 194.788620,69.424347 z"/>
  <path fill="#D2B880" opacity="1.000000" stroke="none" d=" M208.774506,91.434883 C209.462387,91.067642 210.141190,91.015915 211.572357,91.104317 C212.869659,93.156090 213.414597,95.067734 213.959534,96.979378 C213.650452,97.416573 213.341339,97.853767 212.602127,98.672546 C211.015884,99.414368 209.859726,99.774597 208.703583,100.134827 C208.735596,99.026840 208.767609,97.918854 209.018372,96.186440 C209.118774,94.710823 209.000427,93.859634 208.882095,93.008446 C208.843201,92.589096 208.804291,92.169754 208.774506,91.434883 z"/>
  <path fill="#EFE0BD" opacity="1.000000" stroke="none" d=" M84.561073,61.956543 C81.228638,65.658150 77.542786,69.382736 73.538361,73.226326 C76.882408,69.556725 80.545036,65.768120 84.561073,61.956543 z"/>
  <path fill="#D5BF8B" opacity="1.000000" stroke="none" d=" M61.093231,158.321045 C63.314598,161.822845 65.526794,165.699829 67.725525,169.957367 C65.502731,166.457352 63.293392,162.576813 61.093231,158.321045 z"/>
  <path fill="#EFE0BD" opacity="1.000000" stroke="none" d=" M181.095016,175.810394 C181.573029,174.875381 182.399323,173.903549 183.549713,172.858459 C183.063614,173.781311 182.253448,174.777435 181.095016,175.810394 z"/>
  <path fill="#EFE0BD" opacity="1.000000" stroke="none" d=" M88.008621,59.237762 C87.432602,60.099640 86.509216,60.959194 85.264313,61.863899 C85.848946,61.017849 86.755104,60.126644 88.008621,59.237762 z"/>
  <path fill="#D5BF8B" opacity="1.000000" stroke="none" d=" M67.842285,81.328552 C67.612442,82.368217 67.089134,83.554817 66.242828,84.847809 C66.462830,83.794624 67.005821,82.635056 67.842285,81.328552 z"/>
  <path fill="#D5BD88" opacity="1.000000" stroke="none" d=" M102.201462,130.794281 C102.828766,130.456177 103.763260,130.247620 104.874573,130.281097 C104.203819,130.656693 103.356239,130.790283 102.201462,130.794281 z"/>
  <path fill="#EEE0BE" opacity="1.000000" stroke="none" d=" M78.374023,169.613525 C78.819389,169.001617 79.526543,168.473022 80.565598,167.883087 C80.143608,168.446777 79.389709,169.071808 78.374023,169.613525 z"/>
  <path fill="#EFE0BD" opacity="1.000000" stroke="none" d=" M72.580055,74.077461 C72.489853,74.647316 72.112030,75.330322 71.456955,76.141647 C71.550621,75.576851 71.921524,74.883728 72.580055,74.077461 z"/>
  <path fill="#D5BD88" opacity="1.000000" stroke="none" d=" M115.178833,132.271591 C115.628784,132.183456 116.268448,132.322510 116.971001,132.697235 C116.478775,132.788208 115.923668,132.643494 115.178833,132.271591 z"/>
  <path fill="#EFE0BD" opacity="1.000000" stroke="none" d=" M90.918701,57.187099 C90.678207,57.706066 90.128738,58.264660 89.278404,58.872078 C89.521599,58.356178 90.065666,57.791451 90.918701,57.187099 z"/>
  <path fill="#EFE0BD" opacity="1.000000" stroke="none" d=" M210.551239,146.245453 C210.009796,145.953110 209.495773,145.319366 208.936493,144.375687 C209.453705,144.678528 210.016174,145.291275 210.551239,146.245453 z"/>
  <path fill="#EFE0BD" opacity="1.000000" stroke="none" d=" M63.795532,87.188202 C63.780178,87.819809 63.443523,88.557495 62.852371,89.472855 C62.889992,88.865112 63.182110,88.079704 63.795532,87.188202 z"/>
  <path fill="#D2B880" opacity="1.000000" stroke="none" d=" M195.083588,74.786285 C195.210495,74.175568 195.667191,73.491264 196.414581,72.676605 C196.274643,73.268402 195.844009,73.990555 195.083588,74.786285 z"/>
  <path fill="#D5BD88" opacity="1.000000" stroke="none" d=" M83.146294,146.800232 C83.371681,146.289246 83.899895,145.723007 84.718872,145.081512 C84.489471,145.585846 83.969299,146.165421 83.146294,146.800232 z"/>
  <path fill="#EEE0BE" opacity="1.000000" stroke="none" d=" M95.025970,141.990768 C95.037315,141.982040 94.939499,141.999802 94.967941,142.010010 C94.996384,142.020233 95.014633,141.999496 95.025970,141.990768 z"/>
  <path d="M 137.344 127.321 m -113.876 0 a 113.876 115.026 0 1 0 227.752 0 a 113.876 115.026 0 1 0 -227.752 0 Z M 137.344 127.321 m -100.211 0 a 100.211 101.224 0 0 1 200.422 0 a 100.211 101.224 0 0 1 -200.422 0 Z" style="fill: rgb(203, 163, 91);" bx:shape="ring 137.344 127.321 100.211 101.224 113.876 115.026 1@a282da1c"/>
</svg>