<?xml version="1.0" encoding="utf-8"?>
<svg viewBox="-3.861 -0.496 262.225 266.295" xmlns="http://www.w3.org/2000/svg" xmlns:bx="https://boxy-svg.com">
  <path d="M0 0 C2.28811152 0.94390778 4.29834637 2.18229592 6.41015625 3.47265625 C12.29744426 7.00156084 16.7932879 8.66915678 23.6875 8.69921875 C26 9 26 9 27.7890625 10.30859375 C29.92112363 13.28660171 29.41941857 16.53173102 29 20 C28.29869047 23.34129653 27.51125942 26.64397402 26.65625 29.94921875 C26.05349689 32.75130313 25.87302583 35.14837175 26 38 C27.33804688 38.37705078 27.33804688 38.37705078 28.703125 38.76171875 C32.10618802 40.03988342 34.03791297 41.43259812 36.75 43.8125 C41.49842703 47.7743335 46.36176431 50.5047808 52 53 C52.24492187 52.16210938 52.48984375 51.32421875 52.7421875 50.4609375 C54.161461 46.55573153 56.01857766 43.19028729 58.125 39.625 C58.49753906 38.98433594 58.87007812 38.34367187 59.25390625 37.68359375 C60.16434002 36.11951523 61.08148191 34.55934466 62 33 C61.2575 33.495 60.515 33.99 59.75 34.5 C57 36 57 36 53 36 C53.020625 34.906875 53.04125 33.81375 53.0625 32.6875 C53.18544452 29.05615809 53.18544452 29.05615809 52 26 C54.8334432 21.9998449 57.45256014 19.04634794 62 17 C64.296875 16.609375 64.296875 16.609375 67 17 C69.16453021 18.65060544 70.88981081 20.17853678 72.75 22.125 C73.27150635 22.6597998 73.7930127 23.19459961 74.33032227 23.74560547 C79.83833183 29.58653987 84.01744622 36.05921183 88 43 C88.50273437 43.87527344 89.00546875 44.75054687 89.5234375 45.65234375 C99.09456554 63.54745284 101.66306883 87.52348279 96.6484375 107.26171875 C95.10828161 112.32501445 93.1881451 117.18447522 91 122 C90.26523437 123.65322266 90.26523437 123.65322266 89.515625 125.33984375 C79.35770326 145.68422073 61.47441511 159.04010231 41.1875 167.9375 C40.30400879 168.32760254 39.42051758 168.71770508 38.51025391 169.11962891 C31.43291618 172.10973411 25.21633047 173.16967126 17.5 173.0625 C16.6440625 173.05347656 15.788125 173.04445312 14.90625 173.03515625 C14.2771875 173.02355469 13.648125 173.01195312 13 173 C12.25 170.9375 12.25 170.9375 12 168 C13.02539684 166.26964283 14.05428262 164.54041578 15.140625 162.84765625 C16.5610436 159.79375625 15.77377018 157.15956158 15 154 C13.02 154.99 13.02 154.99 11 156 C9 154 9 154 8.875 150.875 C8.91625 149.92625 8.9575 148.9775 9 148 C7.03177114 149.96822886 7.33751619 153.34808709 7 156 C5.68 156.33 4.36 156.66 3 157 C0.95903096 152.61191657 -0.68400513 148.16394338 -2.1875 143.5625 C-2.53167969 142.51191406 -2.87585938 141.46132812 -3.23046875 140.37890625 C-4.92452057 132.94055687 -3.74704418 126.76790478 -1.75 119.5625 C-1.52546143 118.7264624 -1.30092285 117.8904248 -1.06958008 117.02905273 C0.48554739 111.40497739 2.50093212 106.27580997 5 101 C5 99.68 5 98.36 5 97 C3.11351956 95.96198445 1.21536344 94.94516833 -0.6875 93.9375 C-1.74324219 93.36902344 -2.79898438 92.80054688 -3.88671875 92.21484375 C-7.26141137 90.89799381 -8.62353293 90.86664043 -12 92 C-12.680625 92.350625 -13.36125 92.70125 -14.0625 93.0625 C-16 94 -16 94 -20 94 C-19.505 97.465 -19.505 97.465 -19 101 C-18.21625 100.938125 -17.4325 100.87625 -16.625 100.8125 C-15.325625 100.9053125 -15.325625 100.9053125 -14 101 C-10.32451937 106.51322094 -11.54085227 112.93314601 -12.7578125 119.22265625 C-14.89001306 129.21686576 -17.10127206 137.97890849 -25 145 C-25.99 144.67 -26.98 144.34 -28 144 C-27.54635218 140.82446525 -27.00449836 138.01199561 -25.875 135 C-24.47453755 130.19841447 -25.34866669 127.25256405 -27.625 122.875 C-30.39409523 119.52293735 -32.95027337 117.56544055 -37 116 C-38.175625 115.896875 -39.35125 115.79375 -40.5625 115.6875 C-45.45434997 114.70913001 -47.19856916 111.93924275 -50 108 C-50.515625 107.21625 -51.03125 106.4325 -51.5625 105.625 C-52.91764901 103.72234161 -52.91764901 103.72234161 -55.5 103.75 C-58 103 -58 103 -58.98828125 101.16796875 C-59.74225768 99.12758704 -60.41324535 97.09418935 -61 95 C-59.28786378 105.36015937 -59.28786378 105.36015937 -54 114 C-50.99304954 115.59150071 -48.02194705 117.07923642 -44.86401367 118.34106445 C-43.01953125 119.12890625 -43.01953125 119.12890625 -40 121 C-38.66681007 124.54386124 -38.78218653 126.33770539 -39.9609375 129.921875 C-40.42757812 130.85515625 -40.89421875 131.7884375 -41.375 132.75 C-41.83648437 133.69359375 -42.29796875 134.6371875 -42.7734375 135.609375 C-43.17820313 136.39828125 -43.58296875 137.1871875 -44 138 C-44.33 138.66 -44.66 139.32 -45 140 C-45.66 140 -46.32 140 -47 140 C-42.69065156 148.67772904 -36.51121886 152.07271652 -28 156 C-28.33 157.65 -28.66 159.3 -29 161 C-35.31273851 163.68291387 -40.25563597 162.86664127 -46.5625 160.875 C-53.69436264 156.98489311 -57.6241933 152.07570892 -60.3515625 144.44140625 C-61.24118053 141.09194078 -61.36625477 138.44279486 -61 135 C-60.67 134.67 -60.34 134.34 -60 134 C-57.30917128 134.17635452 -54.67148554 134.61835921 -52 135 C-56.34970341 122.97434941 -62.67664281 110.21238871 -73.484375 102.8125 C-79.20724378 95.96865693 -77.62523488 83.36720572 -77 75 C-74.63062416 53.7325736 -68.13801379 34.03053557 -53.12109375 18.25390625 C-51.26702701 16.28374693 -49.64297268 14.26860147 -48 12.125 C-43.9698342 7.35184274 -38.00171737 5.23728984 -32 4 C-29.97631836 4.04174805 -29.97631836 4.04174805 -27.83984375 4.26171875 C-18.34696781 5.0934238 -10.72464205 5.54738919 -2 1 C-1.34 0.67 -0.68 0.34 0 0 Z M-20 16 C-18.47903372 19.80241571 -16.85989732 23.36474615 -15 27 C-12.96758273 26.36020151 -12.96758273 26.36020151 -11 25 C-10.67 23.35 -10.34 21.7 -10 20 C-14.95 18.02 -14.95 18.02 -20 16 Z M16 151 C17 153 17 153 17 153 Z " transform="matrix(0.9999999999999999, 0, 0, 0.9999999999999999, 116, 45)" style="fill: rgb(203, 163, 91);"/>
  <path d="M0 0 C0.33 0 0.66 0 1 0 C1.17015625 0.78503906 1.3403125 1.57007813 1.515625 2.37890625 C3.18387148 11.47145744 3.18387148 11.47145744 8 19 C11.00695046 20.59150071 13.97805295 22.07923642 17.13598633 23.34106445 C18.98046875 24.12890625 18.98046875 24.12890625 22 26 C23.33318993 29.54386124 23.21781347 31.33770539 22.0390625 34.921875 C21.57242188 35.85515625 21.10578125 36.7884375 20.625 37.75 C20.16351563 38.69359375 19.70203125 39.6371875 19.2265625 40.609375 C18.82179688 41.39828125 18.41703125 42.1871875 18 43 C17.67 43.66 17.34 44.32 17 45 C16.34 45 15.68 45 15 45 C19.30934844 53.67772904 25.48878114 57.07271652 34 61 C33.67 62.65 33.34 64.3 33 66 C26.68726149 68.68291387 21.74436403 67.86664127 15.4375 65.875 C8.30563736 61.98489311 4.3758067 57.07570892 1.6484375 49.44140625 C0.75881947 46.09194078 0.63374523 43.44279486 1 40 C1.495 39.505 1.495 39.505 2 39 C4.69082872 39.17635452 7.32851446 39.61835921 10 40 C6.39489363 30.03294121 1.28160003 21.49863534 -5 13 C-2.03 13.495 -2.03 13.495 1 14 C0.67 13.01 0.34 12.02 0 11 C-0.0685495 9.10529184 -0.08480372 7.2083166 -0.0625 5.3125 C-0.05347656 4.31863281 -0.04445313 3.32476562 -0.03515625 2.30078125 C-0.02355469 1.54152344 -0.01195312 0.78226563 0 0 Z " transform="matrix(0.9999999999999999, 0, 0, 0.9999999999999999, 54, 140)" style="fill: rgb(203, 163, 91);"/>
  <path d="M0 0 C4.41031645 0.50888267 6.89327599 3.03449072 10 6 C10 6.99 10 7.98 10 9 C10.66 9 11.32 9 12 9 C12.66 9.9075 13.32 10.815 14 11.75 C16.90039211 15.42094405 20.26637895 16.61900524 24.59765625 18.140625 C26.84151377 18.94330574 28.89385397 19.89099008 31 21 C30.67 22.65 30.34 24.3 30 26 C23.66869892 28.69080296 18.74833231 27.75816064 12.375 26 C7.6920622 23.22492575 5.59536437 19.69525008 3 15 C2.65710937 14.38511719 2.31421875 13.77023438 1.9609375 13.13671875 C-0.25734877 8.62758544 -0.2576712 4.8957528 0 0 Z " transform="matrix(0.9999999999999999, 0, 0, 0.9999999999999999, 57, 179.99999999999997)" style="fill: rgb(203, 163, 91);"/>
  <path d="M0 0 C1.3018842 3.90565261 0.35303629 5.07668842 -1.25 8.8125 C-4.47694882 16.83942284 -7.78947152 26.20745443 -7 35 C-6.34 35.66 -5.68 36.32 -5 37 C-4.3671875 39.3828125 -4.3671875 39.3828125 -3.875 42.125 C-3.70742187 43.03507812 -3.53984375 43.94515625 -3.3671875 44.8828125 C-3.24601562 45.58148438 -3.12484375 46.28015625 -3 47 C-2.01 47 -1.02 47 0 47 C0.33 46.01 0.66 45.02 1 44 C1.66 44 2.32 44 3 44 C3.33 43.01 3.66 42.02 4 41 C6.375 38.3125 6.375 38.3125 9 36 C9.99 36 10.98 36 12 36 C11.71382812 36.53109375 11.42765625 37.0621875 11.1328125 37.609375 C9.79673712 40.42895477 8.84213837 43.28410899 7.875 46.25 C7.52179688 47.32765625 7.16859375 48.4053125 6.8046875 49.515625 C6.53914063 50.33546875 6.27359375 51.1553125 6 52 C6.66 52 7.32 52 8 52 C8.3403125 50.9171875 8.3403125 50.9171875 8.6875 49.8125 C10.26919718 46.42314891 12.20114502 44.4575312 15 42 C16.485 41.505 16.485 41.505 18 41 C16.125 45.75 16.125 45.75 15 48 C14.89567446 50.01985841 14.81620009 52.04103287 14.75 54.0625 C14.31881109 60.639958 12.60878674 64.54055339 9 70 C15.27 69.67 21.54 69.34 28 69 C24.17700575 72.82299425 17.6634916 72.05516549 12.5 72.0625 C10.99993869 72.0466861 9.49988961 72.0276619 8 72 C7.25 69.9375 7.25 69.9375 7 67 C8.02539684 65.26964283 9.05428262 63.54041578 10.140625 61.84765625 C11.5610436 58.79375625 10.77377018 56.15956158 10 53 C8.68 53.66 7.36 54.32 6 55 C4 53 4 53 3.875 49.875 C3.91625 48.92625 3.9575 47.9775 4 47 C2.03177114 48.96822886 2.33751619 52.34808709 2 55 C0.02 55.495 0.02 55.495 -2 56 C-4.04096904 51.61191657 -5.68400513 47.16394338 -7.1875 42.5625 C-7.53167969 41.51191406 -7.87585938 40.46132812 -8.23046875 39.37890625 C-9.92440931 31.94104541 -8.74771633 25.76743783 -6.75 18.5625 C-6.52546143 17.72936279 -6.30092285 16.89622559 -6.06958008 16.0378418 C-4.51273417 10.42296064 -2.6510059 5.20382641 0 0 Z M11 50 C12 52 12 52 12 52 Z " transform="matrix(0.9999999999999999, 0, 0, 0.9999999999999999, 121, 146)" style="fill: rgb(203, 163, 91);"/>
  <path d="M0 0 C0.90492187 0.02320313 1.80984375 0.04640625 2.7421875 0.0703125 C3.65226562 0.08835938 4.56234375 0.10640625 5.5 0.125 C6.19867188 0.14820313 6.89734375 0.17140625 7.6171875 0.1953125 C7.6171875 0.8553125 7.6171875 1.5153125 7.6171875 2.1953125 C8.82375 2.6284375 8.82375 2.6284375 10.0546875 3.0703125 C12.6171875 4.1953125 12.6171875 4.1953125 13.6171875 6.1953125 C7.97012868 4.39852106 7.97012868 4.39852106 5.5546875 3.0078125 C2.88186468 1.88695132 1.35895895 2.37278106 -1.3828125 3.1953125 C-2.0634375 3.5459375 -2.7440625 3.8965625 -3.4453125 4.2578125 C-5.3828125 5.1953125 -5.3828125 5.1953125 -9.3828125 5.1953125 C-9.0528125 7.5053125 -8.7228125 9.8153125 -8.3828125 12.1953125 C-7.5990625 12.1334375 -6.8153125 12.0715625 -6.0078125 12.0078125 C-5.1415625 12.0696875 -4.2753125 12.1315625 -3.3828125 12.1953125 C0.29266813 17.70853344 -0.92366477 24.12845851 -2.140625 30.41796875 C-4.27282556 40.41217826 -6.48408456 49.17422099 -14.3828125 56.1953125 C-15.3728125 55.8653125 -16.3628125 55.5353125 -17.3828125 55.1953125 C-16.92916468 52.01977775 -16.38731086 49.20730811 -15.2578125 46.1953125 C-14.21917365 42.63426501 -14.34687664 40.74709259 -15.3828125 37.1953125 C-17.77237656 32.84289224 -19.93445313 30.41949219 -24.3828125 28.1953125 C-22.3828125 27.1953125 -22.3828125 27.1953125 -20.1953125 27.6328125 C-16.04207538 29.94016646 -13.1540767 33.36186347 -10.3828125 37.1953125 C-10.3828125 37.8553125 -10.3828125 38.5153125 -10.3828125 39.1953125 C-9.3928125 38.7003125 -9.3928125 38.7003125 -8.3828125 38.1953125 C-7.76719832 35.64655016 -7.76719832 35.64655016 -7.3828125 32.6953125 C-6.9453125 29.6640625 -6.9453125 29.6640625 -6.3828125 27.1953125 C-5.7228125 26.8653125 -5.0628125 26.5353125 -4.3828125 26.1953125 C-3.87695552 24.13975031 -3.87695552 24.13975031 -3.6953125 21.7578125 C-3.60894531 20.95472656 -3.52257812 20.15164062 -3.43359375 19.32421875 C-3.21520102 17.14018936 -3.21520102 17.14018936 -4.3828125 15.1953125 C-5.3728125 14.8859375 -6.3628125 14.5765625 -7.3828125 14.2578125 C-8.3728125 13.9071875 -9.3628125 13.5565625 -10.3828125 13.1953125 C-11.5405631 9.72206069 -11.45147902 6.83463802 -11.3828125 3.1953125 C-10.2690625 3.0715625 -9.1553125 2.9478125 -8.0078125 2.8203125 C-4.33104464 2.18638701 -3.41718201 0.28009689 0 0 Z " transform="matrix(0.9999999999999999, 0, 0, 0.9999999999999999, 105.3828125, 133.8046875)" style="fill: rgb(203, 163, 91);"/>
  <path d="M0 0 C9.09374733 13.64062099 8.27806677 35.86311898 5.39208984 51.23876953 C3.83199155 57.40151074 1.62687919 63.21893829 -1 69 C-1.48984375 70.10214844 -1.9796875 71.20429688 -2.484375 72.33984375 C-7.05016091 81.48424082 -13.78762698 89.89336365 -22 96 C-21.67 94.02 -21.34 92.04 -21 90 C-20.443125 89.95875 -19.88625 89.9175 -19.3125 89.875 C-15.77096896 88.53496123 -13.9161025 86.14313344 -12 83 C-10.46890303 79.39275536 -9.18890926 75.73277655 -8 72 C-7.34 72 -6.68 72 -6 72 C-5.67 70.02 -5.34 68.04 -5 66 C-4.01 66 -3.02 66 -2 66 C-0.94395311 62.68206545 0.03195109 59.34456539 1 56 C1.28617188 55.10410156 1.57234375 54.20820313 1.8671875 53.28515625 C3.9880731 45.76106211 4.31641377 38.5390096 4.375 30.75 C4.38877686 29.73212402 4.40255371 28.71424805 4.41674805 27.66552734 C4.38180197 21.95207751 3.71947947 17.28814425 1.69921875 11.94287109 C0.80261038 9.45152703 0.49798029 7.07132009 0.3125 4.4375 C0.21388672 3.16712891 0.21388672 3.16712891 0.11328125 1.87109375 C0.07589844 1.25363281 0.03851563 0.63617188 0 0 Z " transform="matrix(0.9999999999999999, 0, 0, 0.9999999999999999, 208, 98)" style="fill: rgb(203, 163, 91);"/>
  <path d="M0 0 C7.89220897 3.0936053 12.68886475 13.46607258 16.16796875 20.76171875 C17.22234241 23.59813239 17.39384547 26.00677441 17 29 C18.32 29 19.64 29 21 29 C21 28.01 21 27.02 21 26 C21.98885897 24.98898173 22.99022076 23.99012417 24 23 C24.98628417 20.96922316 24.98628417 20.96922316 25.6875 18.8125 C25.93886719 18.09707031 26.19023438 17.38164062 26.44921875 16.64453125 C26.63097656 16.10183594 26.81273438 15.55914062 27 15 C28.0862807 17.76150878 28.04402267 18.87509015 27.0390625 21.7265625 C26.57242188 22.68304688 26.10578125 23.63953125 25.625 24.625 C25.16351563 25.58664063 24.70203125 26.54828125 24.2265625 27.5390625 C23.48522252 29.02646438 22.74322935 30.5135413 22 32 C21.34 32 20.68 32 20 32 C20.42152344 32.62648437 20.84304687 33.25296875 21.27734375 33.8984375 C21.82519531 34.71570313 22.37304688 35.53296875 22.9375 36.375 C23.48277344 37.18710938 24.02804688 37.99921875 24.58984375 38.8359375 C26 41 26 41 27 43 C24.13302508 41.71480435 22.02392288 40.42870746 20 38 C20 37.34 20 36.68 20 36 C19.34 36 18.68 36 18 36 C17.608125 35.2575 17.21625 34.515 16.8125 33.75 C14.38518581 30.06717848 11.90251216 28.98807223 8 27 C8.34316652 33.17699743 9.94533345 37.39427028 12.94140625 42.80078125 C14 45 14 45 14 48 C8.92703404 42.51571248 6.22914597 37.60904901 5.75 30.0625 C6 27 6 27 7 26 C9.69082872 26.17635452 12.32851446 26.61835921 15 27 C11.39489363 17.03294121 6.28160003 8.49863534 0 0 Z " transform="matrix(0.9999999999999999, 0, 0, 0.9999999999999999, 49, 152.99999999999997)" style="fill: rgb(203, 163, 91);"/>
  <path d="M0 0 C0.33 0.99 0.66 1.98 1 3 C-0.8125 5.6875 -0.8125 5.6875 -3 8 C-3.66 8 -4.32 8 -5 8 C-5.33 9.32 -5.66 10.64 -6 12 C-6.66 12 -7.32 12 -8 12 C-8.2475 12.515625 -8.495 13.03125 -8.75 13.5625 C-10.97205781 17.89551273 -13.43530226 22.08898373 -16 26.2265625 C-18.1721858 30.03217951 -19.19353926 33.80612938 -20.125 38.0625 C-21.8468192 45.58300781 -21.8468192 45.58300781 -23.0546875 48.87109375 C-25.42307683 56.7102667 -25.18191996 65.12546793 -25.1875 73.25 C-25.19974609 74.20390625 -25.21199219 75.1578125 -25.22460938 76.140625 C-25.23508349 81.16819973 -24.99895121 85.29100822 -23 90 C-26.50348827 87.66434115 -26.76957193 86.20599863 -27.63378906 82.21191406 C-31.49613706 58.88333216 -24.30449351 32.20568014 -11 13 C-8.72283317 10.25841099 -6.3777519 7.63692067 -3.91796875 5.05859375 C-1.85048287 2.95050774 -1.85048287 2.95050774 0 0 Z " transform="matrix(0.9999999999999999, 0, 0, 0.9999999999999999, 67, 58)" style="fill: rgb(203, 163, 91);"/>
  <path d="M0 0 C0.66 0.33 1.32 0.66 2 1 C2.37393582 7.35690901 1.24860247 12.79359694 -0.34375 18.94921875 C-0.94650311 21.75130313 -1.12697417 24.14837175 -1 27 C-0.10796875 27.25136719 0.7840625 27.50273438 1.703125 27.76171875 C5.10618802 29.03988342 7.03791297 30.43259812 9.75 32.8125 C14.49842703 36.7743335 19.36176431 39.5047808 25 42 C25.20625 41.21625 25.4125 40.4325 25.625 39.625 C27.49034873 34.70726245 30.20865195 30.44157897 33 26 C33.495 26.99 33.495 26.99 34 28 C33.109375 29.91796875 33.109375 29.91796875 31.75 32.1875 C29.50896624 36.04532413 27.67091651 39.86668021 26 44 C21.07753036 43.63081478 18.03010316 42.00049672 14.03125 39.33203125 C12.08825729 38.05787641 10.11352246 36.96355496 8.0625 35.875 C5 34 5 34 4 31 C1.68191636 29.96514123 -0.65175298 28.9644586 -3 28 C-4.42761351 25.14477297 -4.23642195 23.19169638 -4 20 C-3.25397795 18.11872699 -2.50603199 16.2380917 -1.734375 14.3671875 C-0.29381158 9.72366925 -0.23351493 4.83134345 0 0 Z " transform="matrix(0.9999999999999999, 0, 0, 0.9999999999999999, 143.00000000000003, 56)" style="fill: rgb(203, 163, 91);"/>
  <path d="M0 0 C2.36887272 1.75110342 4.31439893 3.84409022 6.3125 6 C7.13717773 6.85851562 7.13717773 6.85851562 7.97851562 7.734375 C9.3305941 9.14523949 10.66688335 10.57120512 12 12 C11.67 12.66 11.34 13.32 11 14 C10.25234375 13.21753906 9.5046875 12.43507813 8.734375 11.62890625 C7.73998846 10.6063767 6.74517428 9.5842629 5.75 8.5625 C5.25886719 8.04623047 4.76773438 7.52996094 4.26171875 6.99804688 C0.73048999 3.35870137 0.73048999 3.35870137 -4 2 C-4.33 3.65 -4.66 5.3 -5 7 C-6.65 7.33 -8.3 7.66 -10 8 C-10.33 8.99 -10.66 9.98 -11 11 C-10.34 11 -9.68 11 -9 11 C-9 11.99 -9 12.98 -9 14 C-6.69 14 -4.38 14 -2 14 C-2 15.32 -2 16.64 -2 18 C-3.98 18.99 -3.98 18.99 -6 20 C-5.67 18.68 -5.34 17.36 -5 16 C-5.7425 16.495 -6.485 16.99 -7.25 17.5 C-10 19 -10 19 -14 19 C-13.979375 17.906875 -13.95875 16.81375 -13.9375 15.6875 C-13.81455548 12.05615809 -13.81455548 12.05615809 -15 9 C-11.24937008 3.70499306 -7.03140489 -1.14348097 0 0 Z " transform="matrix(0.9999999999999999, 0, 0, 0.9999999999999999, 183, 62)" style="fill: rgb(203, 163, 91);"/>
  <path d="M0 0 C6.15867912 1.00549863 8.74645915 3.38038193 12.71484375 8.125 C14 10 14 10 14 12 C14.66 11.67 15.32 11.34 16 11 C16.69093896 8.42048126 16.69093896 8.42048126 17.125 5.4375 C17.29257813 4.42558594 17.46015625 3.41367188 17.6328125 2.37109375 C17.75398438 1.58863281 17.87515625 0.80617187 18 0 C20.23551759 3.35327639 20.17283528 3.90743657 19.625 7.6875 C19.45871094 8.89986328 19.45871094 8.89986328 19.2890625 10.13671875 C19.19367188 10.75160156 19.09828125 11.36648437 19 12 C18.34 12 17.68 12 17 12 C17.103125 12.66 17.20625 13.32 17.3125 14 C16.74531921 19.44493555 13.11454753 24.44803135 9 28 C8.34 28 7.68 28 7 28 C7.45364782 24.82446525 7.99550164 22.01199561 9.125 19 C10.16363885 15.43895251 10.03593586 13.55178009 9 10 C6.58779639 5.60634342 4.41384241 3.32952794 0 1 C0 0.67 0 0.34 0 0 Z " transform="matrix(0.9999999999999999, 0, 0, 0.9999999999999999, 81, 160.99999999999997)" style="fill: rgb(203, 163, 91);"/>
  <path d="M0 0 C3.55780196 0.60990891 6.6828589 1.5783681 10 3 C10.25 10.625 10.25 10.625 8 14 C7.34 14 6.68 14 6 14 C6 14.99 6 15.98 6 17 C4.68 17 3.36 17 2 17 C1.47097431 14.54316882 0.95149191 12.08497874 0.4375 9.625 C0.28603516 8.92632812 0.13457031 8.22765625 -0.02148438 7.5078125 C-1.11328125 2.2265625 -1.11328125 2.2265625 0 0 Z " transform="matrix(0.9999999999999999, 0, 0, 0.9999999999999999, 64, 164.99999999999997)" style="fill: rgb(203, 163, 91);"/>
  <path d="M0 0 C1.3018842 3.90565261 0.35303629 5.07668842 -1.25 8.8125 C-4.47694882 16.83942284 -7.78947152 26.20745443 -7 35 C-6.34 35.66 -5.68 36.32 -5 37 C-4.3671875 39.3828125 -4.3671875 39.3828125 -3.875 42.125 C-3.70742187 43.03507812 -3.53984375 43.94515625 -3.3671875 44.8828125 C-3.24601562 45.58148438 -3.12484375 46.28015625 -3 47 C-2.01 47 -1.02 47 0 47 C0.66 47 1.32 47 2 47 C2 46.34 2 45.68 2 45 C2.66 45.33 3.32 45.66 4 46 C3.34 48.97 2.68 51.94 2 55 C0.02 55.495 0.02 55.495 -2 56 C-4.04096904 51.61191657 -5.68400513 47.16394338 -7.1875 42.5625 C-7.53167969 41.51191406 -7.87585938 40.46132812 -8.23046875 39.37890625 C-9.92440931 31.94104541 -8.74771633 25.76743783 -6.75 18.5625 C-6.52546143 17.72936279 -6.30092285 16.89622559 -6.06958008 16.0378418 C-4.51273417 10.42296064 -2.6510059 5.20382641 0 0 Z " transform="matrix(0.9999999999999999, 0, 0, 0.9999999999999999, 121, 146)" style="fill: rgb(203, 163, 91);"/>
  <path d="M0 0 C1.32 0 2.64 0 4 0 C4 0.66 4 1.32 4 2 C4.99 2 5.98 2 7 2 C7 2.66 7 3.32 7 4 C7.99 4 8.98 4 10 4 C10 4.66 10 5.32 10 6 C10.66 6 11.32 6 12 6 C12.40569459 12.49111338 11.52082747 17.01303477 9 23 C9 23.66 9 24.32 9 25 C7.68 25.33 6.36 25.66 5 26 C5.020625 27.258125 5.04125 28.51625 5.0625 29.8125 C5.10886083 32.64051087 4.91692961 34.24921116 4 37 C3.34 37 2.68 37 2 37 C2.15072311 30.92996914 3.25471208 25.94506713 5.5625 20.3125 C8.40699091 13.79893068 8.40699091 13.79893068 8 7 C6.03445509 5.1282555 4.02571901 3.64169949 1.75 2.1640625 C1.1725 1.77992188 0.595 1.39578125 0 1 C0 0.67 0 0.34 0 0 Z " transform="matrix(0.9999999999999999, 0, 0, 0.9999999999999999, 113, 135)" style="fill: rgb(203, 163, 91);"/>
  <path d="M0 0 C0.99 0 1.98 0 3 0 C3.50512244 1.60256108 4.00391627 3.20711792 4.5 4.8125 C4.7784375 5.70582031 5.056875 6.59914062 5.34375 7.51953125 C6 10 6 10 6 13 C6.99 13 7.98 13 9 13 C8.67 10.36 8.34 7.72 8 5 C8.33 5.66 8.66 6.32 9 7 C9.66 7 10.32 7 11 7 C11.15855469 7.56847656 11.31710938 8.13695312 11.48046875 8.72265625 C13.07085725 13.98587564 14.77309834 19.25778307 19 23 C22.60465748 23.81314911 22.60465748 23.81314911 26 24 C26.66 24.99 27.32 25.98 28 27 C20.37760793 27.11857054 20.37760793 27.11857054 17.171875 24.515625 C15.04661068 22.00394898 13.24423786 19.37124154 11.4375 16.625 C10.08640203 14.73603562 10.08640203 14.73603562 7.55078125 14.69921875 C5 14 5 14 3.671875 11.85546875 C3.36765625 10.97503906 3.0634375 10.09460938 2.75 9.1875 C2.43546875 8.31480469 2.1209375 7.44210938 1.796875 6.54296875 C1.11666031 4.37228364 0.5162193 2.21458078 0 0 Z " transform="matrix(0.9999999999999999, 0, 0, 0.9999999999999999, 53, 134)" style="fill: rgb(203, 163, 91);"/>
  <path d="M0 0 C0.99 0.66 1.98 1.32 3 2 C2.53204741 4.65173136 1.99851757 7.00359378 0.96875 9.5 C-0.36818848 14.33022934 -0.21279391 18.89100705 -0.125 23.875 C-0.11597656 24.84953125 -0.10695312 25.8240625 -0.09765625 26.828125 C-0.07421623 29.21900728 -0.04140442 31.60937261 0 34 C0.66 34 1.32 34 2 34 C2.12375 35.175625 2.12375 35.175625 2.25 36.375 C2.70849401 39.1446618 2.70849401 39.1446618 5 40.125 C5.99 40.558125 5.99 40.558125 7 41 C7.33 41.99 7.66 42.98 8 44 C4.77947903 43.04254782 3.28842651 42.4059336 1.3125 39.625 C0.6628125 38.325625 0.6628125 38.325625 0 37 C-0.35231689 36.38592285 -0.70463379 35.7718457 -1.06762695 35.13916016 C-2.15521024 32.64389836 -2.24379458 30.86324787 -2.23046875 28.1484375 C-2.22853516 27.21386719 -2.22660156 26.27929688 -2.22460938 25.31640625 C-2.21236328 24.34574219 -2.20011719 23.37507813 -2.1875 22.375 C-2.18685547 21.42753906 -2.18621094 20.48007813 -2.18554688 19.50390625 C-2.07827555 2.07827555 -2.07827555 2.07827555 0 0 Z " transform="matrix(0.9999999999999999, 0, 0, 0.9999999999999999, 43, 108.99999999999997)" style="fill: rgb(203, 163, 91);"/>
  <path d="M0 0 C1.32 0 2.64 0 4 0 C3.67 1.98 3.34 3.96 3 6 C3.33 5.67 3.66 5.34 4 5 C6.33297433 4.95907063 8.66705225 4.95758277 11 5 C10.34 6.98 9.68 8.96 9 11 C8.34 11 7.68 11 7 11 C7 10.01 7 9.02 7 8 C3.51678783 9.40810705 2.18562895 10.86586788 0.375 14.125 C-0.8515625 16.3203125 -0.8515625 16.3203125 -2 18 C-2.66 18 -3.32 18 -4 18 C-3.36280747 11.62807469 -1.52697677 7.29046516 2 2 C1.34 2 0.68 2 0 2 C0 1.34 0 0.68 0 0 Z " transform="matrix(0.9999999999999999, 0, 0, 0.9999999999999999, 131, 179.99999999999997)" style="fill: rgb(203, 163, 91);"/>
  <path d="M0 0 C0.99 0 1.98 0 3 0 C1.74807135 12.10197693 -7.29837909 22.05504178 -16 30 C-17.24546405 27.50907189 -16.7767578 26.58919267 -16 24 C-15.443125 23.95875 -14.88625 23.9175 -14.3125 23.875 C-10.77096896 22.53496123 -8.9161025 20.14313344 -7 17 C-5.46890303 13.39275536 -4.18890926 9.73277655 -3 6 C-2.34 6 -1.68 6 -1 6 C-0.67 4.02 -0.34 2.04 0 0 Z " transform="matrix(0.9999999999999999, 0, 0, 0.9999999999999999, 203, 164)" style="fill: rgb(203, 163, 91);"/>
  <path d="M0 0 C2.28811152 0.94390778 4.29834637 2.18229592 6.41015625 3.47265625 C12.34946042 7.0327399 16.93454224 8.67877409 23.8828125 8.796875 C24.58148438 8.86390625 25.28015625 8.9309375 26 9 C26.495 9.99 26.495 9.99 27 11 C18.91489649 10.87349056 12.81955388 10.46869823 5.94140625 6.0859375 C0.93813178 3.28732522 -4.68393915 5.28610147 -9.91015625 6.5546875 C-12.31139305 7.06635291 -14.5520071 7.15793503 -17 7 C-13.8754014 5.34884956 -10.70424016 4.11754065 -7.375 2.9375 C-3.62306302 1.61944264 -3.62306302 1.61944264 0 0 Z " transform="matrix(0.9999999999999999, 0, 0, 0.9999999999999999, 116, 45)" style="fill: rgb(203, 163, 91);"/>
  <path d="M0 0 C0.99 0 1.98 0 3 0 C3 0.66 3 1.32 3 2 C2.34 2 1.68 2 1 2 C1.15847412 2.57975586 1.31694824 3.15951172 1.48022461 3.75683594 C2.28088618 7.21220398 2.37223082 10.71910303 2.5625 14.25 C2.60568359 14.99507812 2.64886719 15.74015625 2.69335938 16.5078125 C2.79896725 18.338349 2.89994201 20.16915176 3 22 C0.5546875 21.171875 0.5546875 21.171875 -2 20 C-3.33733065 15.79696083 -2.99001595 12.2570686 -2 8 C-1.67 7.67 -1.34 7.34 -1 7 C-0.63239269 4.67182036 -0.29758419 2.3381615 0 0 Z " transform="matrix(0.9999999999999999, 0, 0, 0.9999999999999999, 52, 132)" style="fill: rgb(203, 163, 91);"/>
  <path d="M0 0 C1.65 0.33 3.3 0.66 5 1 C5.33 2.32 5.66 3.64 6 5 C5.01 5.495 5.01 5.495 4 6 C5.32 8.64 6.64 11.28 8 14 C8.99 13.67 9.98 13.34 11 13 C11.33 11.02 11.66 9.04 12 7 C12.99 7 13.98 7 15 7 C14.46930939 10.82097239 13.50298434 13.06171403 11 16 C9.35 15.67 7.7 15.34 6 15 C5.67 13.68 5.34 12.36 5 11 C4.34 11 3.68 11 3 11 C0.8125 9.4375 0.8125 9.4375 -1 7 C-0.75 3.25 -0.75 3.25 0 0 Z " transform="matrix(0.9999999999999999, 0, 0, 0.9999999999999999, 93, 57)" style="fill: rgb(203, 163, 91);"/>
  <path d="M0 0 C4.23429756 1.31061591 8.07407404 2.94356259 12 5 C11.67 6.65 11.34 8.3 11 10 C4.71674053 12.67038528 -0.68829987 12.0559487 -6.875 9.625 C-10 8 -10 8 -12 5 C-8.91980287 5.46669653 -6.54788858 6.2047297 -3.6875 7.5 C0.3928216 9.15979184 3.63977575 9.61752419 8 10 C8 9.34 8 8.68 8 8 C8.66 8 9.32 8 10 8 C10 7.34 10 6.68 10 6 C9.46375 5.9175 8.9275 5.835 8.375 5.75 C5.14748846 4.73078583 2.72305958 2.98040697 0 1 C0 0.67 0 0.34 0 0 Z " transform="matrix(0.9999999999999999, 0, 0, 0.9999999999999999, 76, 195.99999999999997)" style="fill: rgb(203, 163, 91);"/>
  <path d="M0 0 C0.33 0.66 0.66 1.32 1 2 C0.109375 3.91796875 0.109375 3.91796875 -1.25 6.1875 C-3.49103376 10.04532413 -5.32908349 13.86668021 -7 18 C-15.00465726 17.39965071 -20.75920786 12.73211641 -26 7 C-25.67 6.34 -25.34 5.68 -25 5 C-24.05125 5.886875 -23.1025 6.77375 -22.125 7.6875 C-17.85760383 11.37656322 -13.10669929 13.67783895 -8 16 C-7.79375 15.21625 -7.5875 14.4325 -7.375 13.625 C-5.50965127 8.70726245 -2.79134805 4.44157897 0 0 Z " transform="matrix(0.9999999999999999, 0, 0, 0.9999999999999999, 176, 82)" style="fill: rgb(203, 163, 91);"/>
  <path d="M0 0 C0.33 0.66 0.66 1.32 1 2 C1.66 2 2.32 2 3 2 C3.70133599 3.57725347 4.385583 5.16211333 5.0625 6.75 C5.44535156 7.63171875 5.82820313 8.5134375 6.22265625 9.421875 C7.04600008 12.15256309 6.9773992 13.36901347 6 16 C4.14223235 12.86501708 3.79859524 10.62528568 4 7 C3.34 7 2.68 7 2 7 C2 8.98 2 10.96 2 13 C1.01 13 0.02 13 -1 13 C-2.80230168 9.17010894 -3.19622241 6.21878192 -3 2 C-2.34 2 -1.68 2 -1 2 C-0.67 1.34 -0.34 0.68 0 0 Z " transform="matrix(0.9999999999999999, 0, 0, 0.9999999999999999, 60, 134)" style="fill: rgb(203, 163, 91);"/>
  <path d="M0 0 C5.38329641 0.96899335 8.4775303 2.52397445 11.90625 6.85546875 C13.88791404 10.74094574 13.61171684 14.76444162 13 19 C12.67 19.66 12.34 20.32 12 21 C11.34 21 10.68 21 10 21 C9.67 22.32 9.34 23.64 9 25 C8.34 24.67 7.68 24.34 7 24 C7.515625 22.80375 8.03125 21.6075 8.5625 20.375 C9.99773775 16.4930236 10.31530644 14.03360641 9 10 C6.58779639 5.60634342 4.41384241 3.32952794 0 1 C0 0.67 0 0.34 0 0 Z " transform="matrix(0.9999999999999999, 0, 0, 0.9999999999999999, 81, 160.99999999999997)" style="fill: rgb(203, 163, 91);"/>
  <path d="M0 0 C0.66 0.33 1.32 0.66 2 1 C1.48308594 1.3403125 0.96617187 1.680625 0.43359375 2.03125 C-1.66387821 3.57459532 -3.37107651 4.96171354 -5 7 C-5.33598606 10.0238745 -4.77687452 11.99608518 -4 15 C-3.34 14.67 -2.68 14.34 -2 14 C-0.00039988 13.960008 2.00047242 13.95653201 4 14 C3.625 15.9375 3.625 15.9375 3 18 C2.34 18.33 1.68 18.66 1 19 C1.33 17.68 1.66 16.36 2 15 C1.2575 15.495 0.515 15.99 -0.25 16.5 C-3 18 -3 18 -7 18 C-6.979375 16.906875 -6.95875 15.81375 -6.9375 14.6875 C-6.81455548 11.05615809 -6.81455548 11.05615809 -8 8 C-5.46209694 4.54563194 -3.56854354 2.37902903 0 0 Z " transform="matrix(0.9999999999999999, 0, 0, 0.9999999999999999, 176, 63)" style="fill: rgb(203, 163, 91);"/>
  <path d="M0 0 C0.33 0 0.66 0 1 0 C1.75145338 9.4349146 -0.23089947 18.22675369 -5.5 26.1875 C-8.01409464 29.01585647 -8.53219917 29.39019604 -12 30 C-11.60167969 29.52691406 -11.20335938 29.05382812 -10.79296875 28.56640625 C-6.84289641 23.63602398 -4.60963524 19.09967039 -3 13 C-2.34 13 -1.68 13 -1 13 C-1.01160156 12.39671875 -1.02320312 11.7934375 -1.03515625 11.171875 C-1.04417969 10.37265625 -1.05320312 9.5734375 -1.0625 8.75 C-1.07410156 7.96109375 -1.08570312 7.1721875 -1.09765625 6.359375 C-1.00385306 4.09308998 -0.63241063 2.1711105 0 0 Z " transform="matrix(0.9999999999999999, 0, 0, 0.9999999999999999, 101, 160)" style="fill: rgb(203, 163, 91);"/>
  <path d="M0 0 C-0.28617188 0.53109375 -0.57234375 1.0621875 -0.8671875 1.609375 C-2.20326288 4.42895477 -3.15786163 7.28410899 -4.125 10.25 C-4.47820312 11.32765625 -4.83140625 12.4053125 -5.1953125 13.515625 C-5.46085937 14.33546875 -5.72640625 15.1553125 -6 16 C-6.33 16 -6.66 16 -7 16 C-7 13.36 -7 10.72 -7 8 C-10.11785113 8.64644661 -10.11785113 8.64644661 -11 11 C-11 10.01 -11 9.02 -11 8 C-10.34 8 -9.68 8 -9 8 C-8.67 7.01 -8.34 6.02 -8 5 C-3.58139535 0 -3.58139535 0 0 0 Z " transform="matrix(0.9999999999999999, 0, 0, 0.9999999999999999, 132.99999999999997, 182.00000000000003)" style="fill: rgb(203, 163, 91);"/>
  <path d="M0 0 C6.62185633 5.84281441 11.12346796 13.36795261 13 22 C9.58723371 18.86332267 7.24011927 15.50225735 4.8125 11.5625 C3.77029297 9.89380859 3.77029297 9.89380859 2.70703125 8.19140625 C1.17367026 5.32468788 0.40005778 3.19449125 0 0 Z " transform="matrix(0.9999999999999999, 0, 0, 0.9999999999999999, 195, 76)" style="fill: rgb(203, 163, 91);"/>
  <path d="M0 0 C1.32 0 2.64 0 4 0 C4 0.66 4 1.32 4 2 C4.99 2 5.98 2 7 2 C7 2.66 7 3.32 7 4 C7.99 4 8.98 4 10 4 C10 4.66 10 5.32 10 6 C10.66 6 11.32 6 12 6 C12.25 8.75 12.25 8.75 12 12 C10 14.375 10 14.375 8 16 C8.0928125 15.41992188 8.185625 14.83984375 8.28125 14.2421875 C8.52282709 11.6279783 8.56964815 9.57179385 8 7 C6.07524073 4.94861183 4.13080528 3.5817533 1.75 2.09375 C1.1725 1.7328125 0.595 1.371875 0 1 C0 0.67 0 0.34 0 0 Z " transform="matrix(0.9999999999999999, 0, 0, 0.9999999999999999, 113, 135)" style="fill: rgb(203, 163, 91);"/>
  <path d="M0 0 C3.94047072 1.51624377 5.65302669 3.8516677 8.0625 7.25 C8.73410156 8.18328125 9.40570313 9.1165625 10.09765625 10.078125 C15.15238695 17.84185921 15.15238695 17.84185921 14.6875 21.375 C14.3471875 22.179375 14.3471875 22.179375 14 23 C13.49210937 22.01 12.98421875 21.02 12.4609375 20 C8.76661523 12.88590914 5.0920868 6.23780633 0 0 Z " transform="matrix(0.9999999999999999, 0, 0, 0.9999999999999999, 49, 152.99999999999997)" style="fill: rgb(203, 163, 91);"/>
  <path d="M0 0 C0.33 0 0.66 0 1 0 C1.12375 1.216875 1.2475 2.43375 1.375 3.6875 C1.6877321 6.27093905 2.05676669 8.13690789 3.0625 10.5625 C4.2969955 13.77218831 4.13356551 16.59407951 4 20 C5.32 20.33 6.64 20.66 8 21 C7.01 21.66 6.02 22.32 5 23 C2.14184349 20.14184349 2.19702668 17.21030676 1.5625 13.3125 C1.16906013 10.82242883 1.16906013 10.82242883 -1 9 C-0.9765625 6.8359375 -0.9765625 6.8359375 -0.625 4.375 C-0.51414062 3.55773437 -0.40328125 2.74046875 -0.2890625 1.8984375 C-0.19367188 1.27195313 -0.09828125 0.64546875 0 0 Z " transform="matrix(0.9999999999999999, 0, 0, 0.9999999999999999, 114, 171.99999999999997)" style="fill: rgb(203, 163, 91);"/>
  <path d="M0 0 C0.99 0 1.98 0 3 0 C2.71640113 1.4391134 2.42278601 2.87625518 2.125 4.3125 C1.96257812 5.11300781 1.80015625 5.91351563 1.6328125 6.73828125 C1 9 1 9 -1 12 C-3.125 12.6875 -3.125 12.6875 -5 13 C-4.34 10.69 -3.68 8.38 -3 6 C-2.34 6 -1.68 6 -1 6 C-0.67 4.02 -0.34 2.04 0 0 Z " transform="matrix(0.9999999999999999, 0, 0, 0.9999999999999999, 203, 164)" style="fill: rgb(203, 163, 91);"/>
  <path d="M0 0 C0.66 0 1.32 0 2 0 C1.38885413 3.14869113 0.75878556 6.29329435 0.125 9.4375 C-0.04902344 10.33533203 -0.22304688 11.23316406 -0.40234375 12.15820312 C-0.57636719 13.01220703 -0.75039063 13.86621094 -0.9296875 14.74609375 C-1.08679199 15.53685303 -1.24389648 16.3276123 -1.40576172 17.14233398 C-1.60186035 17.75536377 -1.79795898 18.36839355 -2 19 C-2.66 19.33 -3.32 19.66 -4 20 C-4.66268329 12.87615459 -2.25388064 6.69120815 0 0 Z " transform="matrix(0.9999999999999999, 0, 0, 0.9999999999999999, 46, 90)" style="fill: rgb(203, 163, 91);"/>
  <path d="M0 0 C0.80759766 -0.00386719 1.61519531 -0.00773437 2.44726562 -0.01171875 C6.49137952 -0.00509448 10.24192826 0.1165983 14.1875 1.125 C14.1875 1.455 14.1875 1.785 14.1875 2.125 C13.60258789 2.11452637 13.01767578 2.10405273 12.41503906 2.09326172 C9.75590337 2.05159736 7.09683647 2.02564099 4.4375 2 C3.51710938 1.98324219 2.59671875 1.96648438 1.6484375 1.94921875 C0.75898437 1.94277344 -0.13046875 1.93632813 -1.046875 1.9296875 C-1.86381836 1.91921387 -2.68076172 1.90874023 -3.52246094 1.89794922 C-6.04643634 2.14819411 -7.59238369 2.94552706 -9.8125 4.125 C-12.5625 4.25 -12.5625 4.25 -14.8125 4.125 C-9.72260982 0.22275087 -6.35124788 -0.02998229 0 0 Z " transform="matrix(0.9999999999999999, 0, 0, 0.9999999999999999, 89.8125, 50.875)" style="fill: rgb(203, 163, 91);"/>
  <path d="M0 0 C0.33 0.66 0.66 1.32 1 2 C0.53980469 2.72574219 0.07960937 3.45148438 -0.39453125 4.19921875 C-2.31831566 7.5553098 -2.49348045 9.97091291 -2.6875 13.8125 C-2.75324219 14.97394531 -2.81898438 16.13539063 -2.88671875 17.33203125 C-2.92410156 18.21246094 -2.96148437 19.09289062 -3 20 C-3.33 20 -3.66 20 -4 20 C-4 15.71 -4 11.42 -4 7 C-4.99 7.33 -5.98 7.66 -7 8 C-5.98823563 4.59679258 -5.35156418 3.24274669 -2.375 1.1875 C-1.59125 0.795625 -0.8075 0.40375 0 0 Z " transform="matrix(0.9999999999999999, 0, 0, 0.9999999999999999, 138, 187)" style="fill: rgb(203, 163, 91);"/>
  <path d="M0 0 C0.99 0 1.98 0 3 0 C3 0.66 3 1.32 3 2 C2.34 2 1.68 2 1 2 C1.16371094 2.52078125 1.32742187 3.0415625 1.49609375 3.578125 C2.14058659 6.6756875 2.09411589 9.58841094 2.0625 12.75 C2.05347656 13.92046875 2.04445312 15.0909375 2.03515625 16.296875 C2.02355469 17.18890625 2.01195312 18.0809375 2 19 C0.48046875 18.01171875 0.48046875 18.01171875 -1 16 C-1.05538697 13.16943421 -0.9635167 10.60930635 -0.6875 7.8125 C-0.62626953 7.06291016 -0.56503906 6.31332031 -0.50195312 5.54101562 C-0.34891389 3.69277255 -0.17633121 1.8461665 0 0 Z " transform="matrix(0.9999999999999999, 0, 0, 0.9999999999999999, 52, 132)" style="fill: rgb(203, 163, 91);"/>
  <path d="M0 0 C0.33 0 0.66 0 1 0 C1.226875 1.11375 1.45375 2.2275 1.6875 3.375 C2.79021182 7.89048417 4.76649396 11.73195565 6.9765625 15.80078125 C8 18 8 18 8 21 C3.08515766 15.68665693 -0.15749441 10.42638234 -0.1875 3 C-0.125625 2.01 -0.06375 1.02 0 0 Z " transform="matrix(0.9999999999999999, 0, 0, 0.9999999999999999, 55, 179.99999999999997)" style="fill: rgb(203, 163, 91);"/>
  <path d="M0 0 C0.33 0 0.66 0 1 0 C1 2.64 1 5.28 1 8 C1.66 8 2.32 8 3 8 C3.0825 8.78375 3.165 9.5675 3.25 10.375 C3.70849401 13.1446618 3.70849401 13.1446618 6 14.125 C6.99 14.558125 6.99 14.558125 8 15 C8.33 15.99 8.66 16.98 9 18 C5.68783273 17.01530162 4.26497677 16.37853825 2.25 13.5 C0.52705072 10.05410144 -0.11762511 8.23375769 -0.0625 4.375 C-0.05347656 3.55773437 -0.04445312 2.74046875 -0.03515625 1.8984375 C-0.02355469 1.27195313 -0.01195312 0.64546875 0 0 Z " transform="matrix(0.9999999999999999, 0, 0, 0.9999999999999999, 42, 135)" style="fill: rgb(203, 163, 91);"/>
  <path d="M0 0 C2 3 2 3 1.8125 5 C0.89389582 7.26117952 -0.2545946 8.32731983 -2 10 C-2.33 10.99 -2.66 11.98 -3 13 C-3.66 13 -4.32 13 -5 13 C-3.78184562 8.31479085 -2.30440013 4.29456388 0 0 Z " transform="matrix(0.9999999999999999, 0, 0, 0.9999999999999999, 52, 80.99999999999999)" style="fill: rgb(203, 163, 91);"/>
  <path d="M0 0 C3.9341561 5.90123415 4.27522305 11.11942374 4 18 C0.94923533 12.23174747 -0.32703913 6.54078263 0 0 Z " transform="matrix(0.9999999999999999, 0, 0, 0.9999999999999999, 208, 98)" style="fill: rgb(203, 163, 91);"/>
  <path d="M0 0 C0.33 0.66 0.66 1.32 1 2 C1.66 2 2.32 2 3 2 C3 2.66 3 3.32 3 4 C2.01 4 1.02 4 0 4 C0 5.98 0 7.96 0 10 C-0.66 10 -1.32 10 -2 10 C-3.35439668 7.29120665 -3.06501451 4.99066732 -3 2 C-2.34 2 -1.68 2 -1 2 C-0.67 1.34 -0.34 0.68 0 0 Z " transform="matrix(0.9999999999999999, 0, 0, 0.9999999999999999, 60, 134)" style="fill: rgb(203, 163, 91);"/>
  <path d="M0 0 C1.9375 0.375 1.9375 0.375 4 1 C4.33 1.66 4.66 2.32 5 3 C4.01 3 3.02 3 2 3 C2.33 5.97 2.66 8.94 3 12 C1.09598862 10.09598862 0.06479561 8.66574314 -0.19921875 5.953125 C-0.1886578 3.96766727 -0.09915043 1.9830086 0 0 Z " transform="matrix(0.9999999999999999, 0, 0, 0.9999999999999999, 57, 179.99999999999997)" style="fill: rgb(203, 163, 91);"/>
  <path d="M0 0 C0.66 0.99 1.32 1.98 2 3 C1.34 3 0.68 3 0 3 C0.020625 4.258125 0.04125 5.51625 0.0625 6.8125 C0.10886083 9.64051087 -0.08307039 11.24921116 -1 14 C-1.66 14 -2.32 14 -3 14 C-2.88512252 12.41590006 -2.75765492 10.83271037 -2.625 9.25 C-2.55539063 8.36828125 -2.48578125 7.4865625 -2.4140625 6.578125 C-2.00149945 4.00933618 -1.28839043 2.24158985 0 0 Z " transform="matrix(0.9999999999999999, 0, 0, 0.9999999999999999, 117.99999999999997, 158)" style="fill: rgb(203, 163, 91);"/>
  <path d="M0 0 C2.35171131 0.59861742 4.6859378 1.26924352 7 2 C8.35439668 4.70879335 8.06501451 7.00933268 8 10 C7.67 10 7.34 10 7 10 C6.67 7.69 6.34 5.38 6 3 C4.02 3.66 2.04 4.32 0 5 C0 3.35 0 1.7 0 0 Z " transform="matrix(0.9999999999999999, 0, 0, 0.9999999999999999, 95, 147)" style="fill: rgb(203, 163, 91);"/>
  <path d="M0 0 C0.33 0 0.66 0 1 0 C1.4375 2.125 1.4375 2.125 1 5 C-1.12689146 7.276147 -3.5023433 9.1458722 -6 11 C-4.55007731 6.89188572 -2.54592427 3.53144334 0 0 Z " transform="matrix(0.9999999999999999, 0, 0, 0.9999999999999999, 179, 80)" style="fill: rgb(203, 163, 91);"/>
  <path d="M0 0 C0.99 0.33 1.98 0.66 3 1 C2.34 1 1.68 1 1 1 C1.42152344 1.62648437 1.84304687 2.25296875 2.27734375 2.8984375 C2.82519531 3.71570313 3.37304688 4.53296875 3.9375 5.375 C4.48277344 6.18710938 5.02804688 6.99921875 5.58984375 7.8359375 C7 10 7 10 8 12 C5.11538849 10.70689829 2.87147927 9.58442376 1 7 C0.3125 3.3125 0.3125 3.3125 0 0 Z " transform="matrix(0.9999999999999999, 0, 0, 0.9999999999999999, 68, 184)" style="fill: rgb(203, 163, 91);"/>
  <path d="M0 0 C2.64 0 5.28 0 8 0 C8 0.33 8 0.66 8 1 C5.69 1 3.38 1 1 1 C1.33 4.3 1.66 7.6 2 11 C1.01 10.67 0.02 10.34 -1 10 C-0.67 6.7 -0.34 3.4 0 0 Z " transform="matrix(0.9999999999999999, 0, 0, 0.9999999999999999, 93, 136)" style="fill: rgb(203, 163, 91);"/>
  <path d="M0 0 C0.66 0 1.32 0 2 0 C1.67 1.65 1.34 3.3 1 5 C0.01 5.33 -0.98 5.66 -2 6 C-2.33 6.99 -2.66 7.98 -3 9 C-3.99 9.33 -4.98 9.66 -6 10 C-6 9.34 -6 8.68 -6 8 C-5.34 8 -4.68 8 -4 8 C-3.71125 7.4225 -3.4225 6.845 -3.125 6.25 C-2.08333333 4.16666667 -1.04166667 2.08333333 0 0 Z " transform="matrix(0.9999999999999999, 0, 0, 0.9999999999999999, 68, 58)" style="fill: rgb(203, 163, 91);"/>
  <path d="M0 0 C0.66 0.33 1.32 0.66 2 1 C-1.96 4.465 -1.96 4.465 -6 8 C-6.66 7.67 -7.32 7.34 -8 7 C-6 4 -6 4 -3 3 C-1.33289654 1.50014391 -1.33289654 1.50014391 0 0 Z " transform="matrix(0.9999999999999999, 0, 0, 0.9999999999999999, 184, 194)" style="fill: rgb(203, 163, 91);"/>
  <path d="M0 0 C0.33 0.66 0.66 1.32 1 2 C0.26418258 3.1549921 -0.48930039 4.29874185 -1.25 5.4375 C-1.66765625 6.07558594 -2.0853125 6.71367187 -2.515625 7.37109375 C-4.27248877 9.29902057 -5.46089803 9.61479436 -8 10 C-7.04367001 8.70684939 -6.08486149 7.41553147 -5.125 6.125 C-4.59132813 5.40570313 -4.05765625 4.68640625 -3.5078125 3.9453125 C-2 2 -2 2 0 0 Z " transform="matrix(0.9999999999999999, 0, 0, 0.9999999999999999, 97, 179.99999999999997)" style="fill: rgb(203, 163, 91);"/>
  <path d="M0 0 C0.99 0.33 1.98 0.66 3 1 C3.66 0.67 4.32 0.34 5 0 C5 2.31 5 4.62 5 7 C4.01 7 3.02 7 2 7 C1.34 4.69 0.68 2.38 0 0 Z " transform="matrix(0.9999999999999999, 0, 0, 0.9999999999999999, 116.99999999999997, 193)" style="fill: rgb(203, 163, 91);"/>
  <path d="M0 0 C0.33 0 0.66 0 1 0 C1 1.65 1 3.3 1 5 C1.99 5 2.98 5 4 5 C4.33 4.01 4.66 3.02 5 2 C5.33 2.66 5.66 3.32 6 4 C5.67 4.99 5.34 5.98 5 7 C4.01 7.33 3.02 7.66 2 8 C0 6 0 6 -0.125 2.875 C-0.08375 1.92625 -0.0425 0.9775 0 0 Z " transform="matrix(0.9999999999999999, 0, 0, 0.9999999999999999, 125.00000000000003, 193)" style="fill: rgb(203, 163, 91);"/>
  <path d="M0 0 C1.29315061 0.95632999 2.58446853 1.91513851 3.875 2.875 C4.59429687 3.40867187 5.31359375 3.94234375 6.0546875 4.4921875 C8 6 8 6 10 8 C5.17965738 7.58682778 3.09007389 5.61980085 0 2 C0 1.34 0 0.68 0 0 Z " transform="matrix(0.9999999999999999, 0, 0, 0.9999999999999999, 149.99999999999994, 87)" style="fill: rgb(203, 163, 91);"/>
  <path d="M0 0 C1.32 0 2.64 0 4 0 C3.34 1.98 2.68 3.96 2 6 C1.34 6 0.68 6 0 6 C0 5.01 0 4.02 0 3 C-0.66 2.67 -1.32 2.34 -2 2 C-1.34 1.34 -0.68 0.68 0 0 Z " transform="matrix(0.9999999999999999, 0, 0, 0.9999999999999999, 138, 185)" style="fill: rgb(203, 163, 91);"/>
  <path d="M0 0 C0 1.98 0 3.96 0 6 C-0.66 5.67 -1.32 5.34 -2 5 C-2 4.34 -2 3.68 -2 3 C-3.65 2.67 -5.3 2.34 -7 2 C-7 1.67 -7 1.34 -7 1 C-2.25 0 -2.25 0 0 0 Z " transform="matrix(0.9999999999999999, 0, 0, 0.9999999999999999, 90, 160)" style="fill: rgb(203, 163, 91);"/>
  <path d="M0 0 C1.46726798 3.81489674 0.43336419 6.29011622 -1 10 C-1.33 10 -1.66 10 -2 10 C-2.25 3.375 -2.25 3.375 0 0 Z " transform="matrix(0.9999999999999999, 0, 0, 0.9999999999999999, 44, 100)" style="fill: rgb(203, 163, 91);"/>
  <path d="M0 0 C0.33 0 0.66 0 1 0 C1.125 3.375 1.125 3.375 1 7 C0.34 7.66 -0.32 8.32 -1 9 C-1.99 8.67 -2.98 8.34 -4 8 C-3.2884375 7.13375 -3.2884375 7.13375 -2.5625 6.25 C-1.0515133 4.07417916 -0.45963849 2.57397552 0 0 Z " transform="matrix(0.9999999999999999, 0, 0, 0.9999999999999999, 108, 64)" style="fill: rgb(203, 163, 91);"/>
  <path d="M0 0 C1.32 0.33 2.64 0.66 4 1 C3.01 1 2.02 1 1 1 C0.67 2.65 0.34 4.3 0 6 C-0.99 5.67 -1.98 5.34 -3 5 C-2.01 3.35 -1.02 1.7 0 0 Z " transform="matrix(0.9999999999999999, 0, 0, 0.9999999999999999, 178, 63)" style="fill: rgb(203, 163, 91);"/>
  <path d="M0 0 C1.32 0 2.64 0 4 0 C3.75 2.375 3.75 2.375 3 5 C0.9375 6.3125 0.9375 6.3125 -1 7 C-0.01 5.35 0.98 3.7 2 2 C1.34 2 0.68 2 0 2 C0 1.34 0 0.68 0 0 Z " transform="matrix(0.9999999999999999, 0, 0, 0.9999999999999999, 131, 179.99999999999997)" style="fill: rgb(203, 163, 91);"/>
  <path d="M0 0 C3.44216672 2.6598561 3.99504674 5.90288286 5 10 C1.32769295 6.92000054 0.43197635 4.7517398 0 0 Z " transform="matrix(0.9999999999999999, 0, 0, 0.9999999999999999, 203, 88)" style="fill: rgb(203, 163, 91);"/>
  <path d="M0 0 C0.33 0.99 0.66 1.98 1 3 C3.31 3 5.62 3 8 3 C7.67 4.32 7.34 5.64 7 7 C7 6.01 7 5.02 7 4 C4.36 4.33 1.72 4.66 -1 5 C-0.67 3.35 -0.34 1.7 0 0 Z " transform="matrix(0.9999999999999999, 0, 0, 0.9999999999999999, 173, 73.00000000000001)" style="fill: rgb(203, 163, 91);"/>
  <path d="M 127.396 132.36 m -130.094 0 a 130.094 131.695 0 1 0 260.188 0 a 130.094 131.695 0 1 0 -260.188 0 Z M 127.396 132.36 m -114.483 0 a 114.483 115.892 0 0 1 228.966 0 a 114.483 115.892 0 0 1 -228.966 0 Z" style="fill: rgb(203, 163, 91);" transform="matrix(0.9999999999999999, 0, 0, 0.9999999999999999, 1.4210854715202004e-14, 0)" bx:shape="ring 127.396 132.36 114.483 115.892 130.094 131.695 1@ebe87edf"/>
</svg>